<svg width="11" height="14" viewBox="0 0 11 14" fill="none" xmlns="http://www.w3.org/2000/svg">
<path d="M5.50001 6.87501C5.87813 6.87501 6.20183 6.74037 6.4711 6.4711C6.74037 6.20183 6.87501 5.87813 6.87501 5.50001C6.87501 5.12188 6.74037 4.79818 6.4711 4.52891C6.20183 4.25964 5.87813 4.125 5.50001 4.125C5.12188 4.125 4.79818 4.25964 4.52891 4.52891C4.25964 4.79818 4.125 5.12188 4.125 5.50001C4.125 5.87813 4.25964 6.20183 4.52891 6.4711C4.79818 6.74037 5.12188 6.87501 5.50001 6.87501ZM5.50001 11.9281C6.89792 10.6448 7.9349 9.47892 8.61095 8.43048C9.28699 7.38204 9.62501 6.45105 9.62501 5.63751C9.62501 4.38855 9.22683 3.36589 8.43048 2.56953C7.63412 1.77318 6.6573 1.375 5.50001 1.375C4.34271 1.375 3.36589 1.77318 2.56953 2.56953C1.77318 3.36589 1.375 4.38855 1.375 5.63751C1.375 6.45105 1.71302 7.38204 2.38906 8.43048C3.06511 9.47892 4.10209 10.6448 5.50001 11.9281ZM5.50001 13.75C3.65521 12.1802 2.27735 10.7221 1.36641 9.37579C0.455469 8.02943 0 6.78334 0 5.63751C0 3.91875 0.552865 2.54948 1.6586 1.52969C2.76433 0.509896 4.0448 0 5.50001 0C6.95522 0 8.23568 0.509896 9.34142 1.52969C10.4471 2.54948 11 3.91875 11 5.63751C11 6.78334 10.5445 8.02943 9.6336 9.37579C8.72266 10.7221 7.3448 12.1802 5.50001 13.75Z" fill="white"/>
</svg>
