<svg width="17" height="19" viewBox="0 0 17 19" fill="none" xmlns="http://www.w3.org/2000/svg">
<path d="M3.64286 19H13.3571C14.3233 19 15.2499 18.6247 15.933 17.9566C16.6162 17.2885 17 16.3823 17 15.4375V5.53969C17.0002 5.22771 16.9376 4.91873 16.8158 4.63042C16.6939 4.34211 16.5151 4.0801 16.2896 3.85938L13.0536 0.694688C12.8279 0.474207 12.56 0.299374 12.2651 0.180177C11.9703 0.0609801 11.6544 -0.000244591 11.3354 7.34346e-07H3.64286C2.67671 7.34346e-07 1.75014 0.375335 1.06697 1.04343C0.3838 1.71153 0 2.61767 0 3.5625V15.4375C0 16.3823 0.3838 17.2885 1.06697 17.9566C1.75014 18.6247 2.67671 19 3.64286 19ZM2.42857 3.5625C2.42857 3.24756 2.5565 2.94551 2.78423 2.72281C3.01195 2.50011 3.32081 2.375 3.64286 2.375H11.3354L14.5714 5.53969V15.4375C14.5714 15.7524 14.4435 16.0545 14.2158 16.2772C13.988 16.4999 13.6792 16.625 13.3571 16.625H3.64286C3.32081 16.625 3.01195 16.4999 2.78423 16.2772C2.5565 16.0545 2.42857 15.7524 2.42857 15.4375V3.5625Z" fill="black"/>
<path d="M5.5 15H11.5C11.8978 15 12.2794 14.842 12.5607 14.5607C12.842 14.2794 13 13.8978 13 13.5C13 13.1022 12.842 12.7206 12.5607 12.4393C12.2794 12.158 11.8978 12 11.5 12H5.5C5.10218 12 4.72064 12.158 4.43934 12.4393C4.15804 12.7206 4 13.1022 4 13.5C4 13.8978 4.15804 14.2794 4.43934 14.5607C4.72064 14.842 5.10218 15 5.5 15Z" fill="black"/>
</svg>
