<svg width="17" height="17" viewBox="0 0 17 17" fill="none" xmlns="http://www.w3.org/2000/svg">
<path d="M8.49999 12.325C9.56249 12.325 10.4656 11.9531 11.2094 11.2094C11.9531 10.4656 12.325 9.56249 12.325 8.49999C12.325 7.43749 11.9531 6.53437 11.2094 5.79062C10.4656 5.04687 9.56249 4.67499 8.49999 4.67499C7.43749 4.67499 6.53437 5.04687 5.79062 5.79062C5.04687 6.53437 4.67499 7.43749 4.67499 8.49999C4.67499 9.56249 5.04687 10.4656 5.79062 11.2094C6.53437 11.9531 7.43749 12.325 8.49999 12.325ZM8.49999 9.34999C8.25916 9.34999 8.05728 9.26853 7.89437 9.10561C7.73145 8.9427 7.64999 8.74082 7.64999 8.49999C7.64999 8.25916 7.73145 8.05728 7.89437 7.89437C8.05728 7.73145 8.25916 7.64999 8.49999 7.64999C8.74082 7.64999 8.9427 7.73145 9.10561 7.89437C9.26853 8.05728 9.34999 8.25916 9.34999 8.49999C9.34999 8.74082 9.26853 8.9427 9.10561 9.10561C8.9427 9.26853 8.74082 9.34999 8.49999 9.34999ZM8.49999 17C7.32416 17 6.21916 16.7769 5.18499 16.3306C4.15083 15.8844 3.25125 15.2787 2.48625 14.5137C1.72125 13.7487 1.11562 12.8492 0.669374 11.815C0.223125 10.7808 0 9.67582 0 8.49999C0 7.32416 0.223125 6.21916 0.669374 5.18499C1.11562 4.15083 1.72125 3.25125 2.48625 2.48625C3.25125 1.72125 4.15083 1.11562 5.18499 0.669374C6.21916 0.223125 7.32416 0 8.49999 0C9.67582 0 10.7808 0.223125 11.815 0.669374C12.8492 1.11562 13.7487 1.72125 14.5137 2.48625C15.2787 3.25125 15.8844 4.15083 16.3306 5.18499C16.7769 6.21916 17 7.32416 17 8.49999C17 9.67582 16.7769 10.7808 16.3306 11.815C15.8844 12.8492 15.2787 13.7487 14.5137 14.5137C13.7487 15.2787 12.8492 15.8844 11.815 16.3306C10.7808 16.7769 9.67582 17 8.49999 17Z" fill="white"/>
</svg>
